/* XPM */
static char *_31e6ae01fee4b01c8b6a026098f83c7kVY0iasmSStlpETO[] = {
/* columns rows colors chars-per-pixel */
"64 64 99 2 ",
"   c black",
".  c #04040E",
"X  c #0B0B0C",
"o  c #030314",
"O  c #0E0E11",
"+  c #01011C",
"@  c #131313",
"#  c #17171C",
"$  c #1A1A1C",
"%  c #000023",
"&  c #0B0B25",
"*  c #00002C",
"=  c #0D0D28",
"-  c #161622",
";  c #1C1C23",
":  c #17172C",
">  c #1C1C2C",
",  c #000034",
"<  c #0B0B35",
"1  c #00003C",
"2  c #0D0D3B",
"3  c #151533",
"4  c #191931",
"5  c #14143C",
"6  c #18183C",
"7  c #202020",
"8  c #2D2D2F",
"9  c #272734",
"0  c #2D2D3A",
"q  c #303037",
"w  c #000044",
"e  c #0A0A45",
"r  c #00004D",
"t  c #0A0A4D",
"y  c #171745",
"u  c #1A1A44",
"i  c #16164B",
"p  c #1A1A4A",
"a  c #000054",
"s  c #0C0C54",
"d  c #00005B",
"f  c #0C0C5B",
"g  c #161652",
"h  c #121258",
"j  c #212141",
"k  c #24244A",
"l  c #000064",
"z  c #090965",
"x  c #01016B",
"c  c #0C0C6E",
"v  c #121266",
"b  c #10106A",
"n  c #000074",
"m  c #090976",
"M  c #010178",
"N  c #070779",
"B  c #03037C",
"V  c #00007F",
"C  c #04047F",
"Z  c #010181",
"A  c #070781",
"S  c #060682",
"D  c #000087",
"F  c #00008A",
"G  c #040489",
"H  c #04048A",
"J  c #04048B",
"K  c #01018F",
"L  c #04048C",
"P  c #010190",
"I  c #010195",
"U  c #00009A",
"Y  c #00009C",
"T  c #00009E",
"R  c #0000A1",
"E  c #0000A3",
"W  c #0000A6",
"Q  c #0000A7",
"!  c #0000A8",
"~  c #0000AE",
"^  c #0202AE",
"/  c #0F0FAE",
"(  c #0000B2",
")  c #0202B4",
"_  c #0101BB",
"`  c #0000BE",
"'  c #0404BD",
"]  c #1414B7",
"[  c #1818BC",
"{  c #0000C2",
"}  c #0405C0",
"|  c #0000C8",
" . c #0303CA",
".. c #0000D2",
"X. c #0000D8",
"o. c #1212D6",
"O. c #1214DC",
"+. c #0000E3",
"@. c #2424E6",
/* pixels */
"c B M M M M B M B B M M M n M M n M M M M n n n n x x h 8 k n M M M M M M n n n x n z 9 0 m M M M n B M n n n x z j v C M C M k ",
"A I I P P P I I P F K P K K I P K K K P K F Z Z M n x r O i I I P P P I I K Z B B n l o > L U U U U U U U K D n l % M R U U F 1 ",
"A I K Z K B K P F Z Z F M Z F Z M n Z F M n n n x d a , X i I P K D Z P K F M M Z n r . 4 L W ! ! W ! ( ~ ! W K n * n R K D M 1 ",
"A F M M Z Z D M n Z F K n n Z x x n n n Z n x l d a a 1 X i P F P K Z F Z n M n B l w . 4 J W ! ! R ~ ( W W I F n * x P P F l % ",
"S Z F M Z M M n n n Z Z B n x x x n x l x l d a a r a 1 X i P D Z Z K B n n x l a a w . 4 L ! W W ' ) W T P Z M x % l n n x d % ",
"S Z M K U P n n n n F K K D Z n n x l l n x x l d a r 1 X i I P D K F n l x x n d r w . 4 L ! R ) O.' T W U F n l * l B l d r % ",
"S P F U R U I P D D P U K D n n l l l l x n x x a r r 1 X i U I F B Z x x n M n l a w . 4 J R W R ~ ~ T U T B x l * l n d r r % ",
"S P F K T R I F M x Z K F Z M n l l l d l x x l a a a 1 X i I K M n M M B M M x d r w . 4 L R ~ W T T T T U M l l * a d w r w + ",
"A P M Z I P F Z M B n x x n M l d l n l d l l d a a r 1 X i P Z M n x Z P F x l l a w o 4 F W ( W T F Z P P Z x d + + % * % % o ",
"Z Z M Z P B n n K P M a d a d d l x x l d l l l a r r , X i K B n x x n B M l d a a w . 4 J R ~ R T Z M B D Z l r + d F K K F 1 ",
"M n M F Z M x M K K n l a r r d d l l d d l n x d r a , X i Z M n l x n n x x a a a w . 4 J W ~ ! T F B Z B n l a % n R P U F 1 ",
"m M Z M n F B x x l l d r r r a d x d w w d x x l r r , X y Z M x l l x x d d a d r w . 4 J R ~ ~ R P Z M Z n d a % l I F Z x * ",
"M n Z n l n M x d l l l d a a a d d r w 1 r d l d r a , X y Z n n l d d d d a r a a w . 4 F W ! ~ U F D n M x a r + l P F n a % ",
"m Z n n x l l a a d l d d d a a r r w w w w r r r r r , X y M n l l d r r r r a a a 1 . 4 J R R ! P D Z Z n x a a % d M n l d * ",
"x n n l d d a d a a a r a r r a r a r w w w w r r w r , X 6 x d x a r r r r w r w r 1 . : A ! R ~ R D F B x d r r + a l d r r % ",
"& % * % + % + % % % + + + + o + o + + o o o o o o o o . X # % + + + o o o o o o o o o . : A ! W U P D Z M l a a r + o % % % % o ",
"K D B Z Z Z M B B Z Z Z M M y # $ $ # - - - - - - - - - $ - $ $ $ $ $ $ - # - - - - - $ : C R ! I T Z Z n x d r r + w D U U U U ",
"W U K I W R I F P I Z F K Z w @ ; 5 f z x z m N N M z s e e 1 3 $ 7 : e f m m B z d f t 4 C W W W P F R K n l d r + d W _ | ` ) ",
"W K F D I U F n F F M n Z Z w @ 3 d n D D D K U U I D x a d a r 5 ; 4 l Z F M Z n n x a & B P U W R K P M x l a r % x ~ | +.X.) ",
"U K I U P F M n n Z M n n n 1 @ f B F P I I T K B D M l d d a d t ; 4 n K M l l x l a d % n U R ! R P B n l a a a % n ( { ..{ ) ",
"F D T ! T Z n M Z M M l l n 1 % n P I P P T K x d x n d a a a l a @ 6 n F D x d l a d a + n R W R Z n n n l a d r % M ) _ ( W R ",
"K Z K T R Z M M M l l l x x , * n I U T U T P n l x d a a a d a r X 3 x F Z n d a l a w + x I U U x l x x l a r r + Z ) _ ~ ~ R ",
"F n Z F I D M n M x d l d d * * n T R T R R F M x l d a a a d d w X 4 l x l d r r a a w + x F I I n x l l d a r r + Z ) ( ~ ! R ",
"P B Z B D Z B Z M l x l l a % 1 n I U P D F B n l l l d a d a a w X : 3 * % + % % % % % o l D K T Z x l l l r a r + B ) ! R I T ",
"T F Z K F Z D F n x x d a r % 1 M P K B M Z n l d l n n l l l l r * c m B Z x x l d a o - n D K I Z n l l a a a r + n ( ) W W ( ",
"U F n Z I U n n B M n l a a * w M D M Z P F M l l x D U D x l l r , I W ! T K Z n B l o : A T T P F n x l a a a r + n ~ ( ( ( ~ ",
"K M M F T R F Z M M M x a a * , x Z n Z I I D n n M P R D n l l a , P U T P B n Z x a o 3 J W W W I Z M x d a a a + n ( ( _ ~ R ",
"K F D K U T U B x n x l a r * * l n n F ] [ K D K B D F M x x l d , K P K Z Z Z B l a o 4 J W T ! U F n l d a d a + l ~ ` ` ~ R ",
"D F K P K U I x l d d a a r % * d x n F / ] I K K F D Z M l l l r , P I K B F M x x d o : J U P T K D n x a a a r % d ! ( ) ) W ",
"Z B P U P K D x d a a r w w % o r n M F P P P F I K Z D x d a l 1 , U W U K Z l l l a o 4 F K K F M M n n a r r r + l ! ) ( ~ W ",
"Z Z K K I Z x d a r r w w r %   1 x M D D Z K F I I D n a d l a 1 , P R R P M l l d r . 4 J K T K Z M x l a a r r + l ! _ ( T U ",
"Z B M D F n d d d d l a w a * X < d x n n n D K F Z Z x d l a r 1 , K K I P n l d d r o : J I R R P B x l d l a r + d W ( ~ T K ",
"B Z Z n n x l d l x x l a r * @ : e a l l d l x x d l l d a r r , , K F F n x l d d w o : J U R W U F M x l x d r + d ! ~ ( R F ",
"K K D n n x d a d l x d a r % @ ; - < * * * , , * * , * * * * * + , F K Z l d l d a w . > J R W T I K F M x l a r + l ! ( R F Z ",
"F F B n n l l a a a a a r r % @ $ 4 < * * * * * , , , * * , * % O 2 K D M x a a a r w . 3 J ~ ~ U F Z D D B l d r + a W ( R K Z ",
"B Z M x n x x d r w w r a r * @ 7 5 d d x x x l n x x l d a a 1 # y K D M l a r a r w . 4 J T W I I M n Z M x l r + r R ~ W P D ",
"M n x l l x n a w w 1 w r r % @ 7 2 d n Z D B Z M n M x x l a 1 X y P P M n d a r r w . : J P R U U Z x x x l a r + r U W P D B ",
"M x d x l l l a w w 1 w r r % @ 7 y l Z B Z Z M x x x d x n l w X y I P B F l d a r w . 4 L T U I F M d d d a a r + r P T F Z Z ",
"Z M x x l l a a w w w w w r % @ ; 2 n Z n n Z M n n l a l n d w . y P P K F n l d r w . 4 L ! I K D x a r a a r r + r P P Z Z Z ",
"Z Z M l l x a r r r w w r r * @ ; y x B Z B x x x l l a a d d 1 X y K K F Z n x l a r o : J R K K Z x d a r d a r + r F P F Z B ",
"d d a w w r r 1 1 1 1 , 1 w % @ 7 5 x Z Z n l d a r a a a d a 1 X 5 F K n x x l a a w o : C I K Z x x d a a r r r + < l l l d d ",
"X X X X X + + % % * , * * * % = > 2 a l d r 1 1 1 1 , 1 r w w * X 6 Z D n l d l r a w . > B F n x a l d a a r r w + $ = % * * o ",
"; 6 y i g z x n M D F F Z M n x x f e 1 1 1 , * % X X X X X X X @ 6 D F x d d d r r r . : n x a a r a d a a r a r + # t d d d 6 ",
"> m I R ! ! ~ ~ ! ! ! ! W ! ~ ! R T T P D D Z n e $ - : : 4 4 : ; 5 Z B n l a r r r w . - f d w w 1 1 1 1 w 1 w 1 o @ t a d d 4 ",
"7 N ! ~ ~ ! ! W R R ~ T I T ! W U T T F M n n x 1 O : r d l l s $ 6 C n n d a r r r w . $ ; @ X X . X X X X . X . X $ 5 e w t 4 ",
"4 J ~ ! W T W W W W ! U U R ! W R U F K B l d a 1 X 4 l F F F a X 6 n n x d d a r a r o $ 7 u p i i y i p p u i u i p p y i u > ",
"9 K ~ ! W R ! ! I F P W ! I K K F K D B M x a r 1 X 4 x U U B w X 4 d d r r w w 1 1 , . 7 4 I ! ! W W W W W W W W R R T T U P i ",
"9 J R R U U R W P F F R R P Z K F B D D Z l d r , X 4 n T I Z d X - 3 * , , * * * * % % $ 9 T ) ~ ~ W R R U W R R U T R W U F w ",
"> I ) R P F T T I P K I T W T R T D M Z n l r a , X 6 x K n d 1 X 6 n D P P P P F Z n z > 9 U W W ! W R ( ) U I I F U R P D M 1 ",
"> L ~ I U R T P K T U U F F I { _ F n l l a r a , X 5 x M d r 1 X 6 F U R I F I K F l a o 4 T ! W R T ! ~ ( F n Z Z Z Z n n n , ",
"9 I ~ ! W T F T P I D n D D K I K M M Z n l a d , O 4 z d r w , X y P T T P M n n l a r o 3 U / ! ~ R R T U B n n Z K B n x l * ",
"7 L R W I I T ! R P M n n F I Z n M Z n x a d d , X - - o O . . X 3 n Z n x l a r r w 1 . 4 T ! ! | | ! I I F M n F Z M Z x a % ",
"9 I W P L !  .' T D K B x F P D M n B n d d a r , X ; 4 4 4 4 4 4 4 * * % % % % + + + o X 4 U ! R { | ` ! R P F P Z x B D l a % ",
"9 P T W R } @.o.R D K K B n n M M Z n d w r r a * O u C B A J F J F F D D M B n x x d r - 4 U W U I ( ( T P Z Z M M Z D n l r % ",
"> I ! ~ W (  .' U B F K n d d l n M x a 1 w w r , O u F P Z F K D K I K Z F F n n l d r @ 4 I T U U K F F B F Z n Z K Z x d r % ",
"; P T W W R R L Z Z M n d d d d l l l d w w w r , X i D F B B F P I U U D Z B n l d a w o 9 U W U K D M M n M Z D Z B x d a r % ",
"9 A W W R U Z n B P F Z n l a d d l d a a d r r , X g K D P I I F P P I P P F n x l r r o 4 U ~ U P M n x x x M Z n l a a d a % ",
": L R W W K B P B F I K n x d a l x l a a r r r , X g K K F P D B M B K I I F M x a a r o 4 T ! W T P B x a a l x d a w w r r % ",
"> K T W U F B M l n P P F n d a l x x d r a a a , X i D D K D Z F n B F F F M n l a r w . 4 T ! T I Z n M d r d d a r w w 1 w % ",
"7 J U F Z B K x x x n D D x l d l x n l r a a r , O i D K B n n n n x n n M x l a a r w . : J U P K U F n x d d a d a w w w r % ",
"9 J I n l n x B M x M l d a a a a l x d r r a a * O u Z K D x l l l x l x x l d a a a w . 4 P R I B K n x x a a a r r a a a r % ",
"> C I B n x x l d d d l d d d d a a a a r r a r , X y B D M x l d l l d d d a a a d r w O 4 A D F n B M x l d a a r a r r r r % ",
"9 N P n n M x z l d d l d d d d a a d a a a d a < O y n n x l l l l d d a d a d d d f a - 4 A F M n n x l l f a a d a d a d a 3 ",
"q v M n n M x x x x x x x x z l x x l z x x l x g 8 k n x x x c x x x x x z x l l x x z 0 0 b M n n x x x x l x x l x z x l x u "
};
