/* XPM */
static char *_e0509f839e444e9dd936ce7da881f4cDuiY20qInviaOxFq[] = {
/* columns rows colors chars-per-pixel */
"64 64 50 1 ",
"  c #202020",
". c #222222",
"X c #272727",
"o c #2A2A2A",
"O c #2D2D2D",
"+ c #313131",
"@ c #373737",
"# c gray22",
"$ c #3F3F3F",
"% c #434343",
"& c gray28",
"* c #4B4B4B",
"= c gray31",
"- c #535353",
"; c gray33",
": c #585858",
"> c gray37",
", c gray39",
"< c #646464",
"1 c #6A6A6A",
"2 c #6C6C6C",
"3 c #717171",
"4 c #747474",
"5 c #7B7B7B",
"6 c #7C7C7C",
"7 c #818181",
"8 c gray52",
"9 c #898989",
"0 c gray56",
"q c #929292",
"w c #979797",
"e c #989898",
"r c #9F9F9F",
"t c gray64",
"y c #A4A4A4",
"u c gray66",
"i c #AFAFAF",
"p c #B2B2B2",
"a c #B6B6B6",
"s c gray72",
"d c gray",
"f c #C3C3C3",
"g c #C5C5C5",
"h c #C8C8C8",
"j c gray81",
"k c LightGray",
"l c #D7D7D7",
"z c gray86",
"x c #DDDDDD",
"c c #E2E2E2",
/* pixels */
"####@####@&<1111<11111111<>O@*;,,<<<<<,:-*@o++@+@+@+@@@@##@####@",
"---------=3jkkjjkkkkkjjkkjyO*0ussdssssiir4&o&-:::>>:;--========*",
",<,,,,<:*=4kkhgghkhjjhghha4O=eduwyqqqq0wq;@X%4rrrrte973>:::>:::;",
"rreeqq93@=4khsafadssfsaas8;o-ygrqewtwrqw6-@.&wklkkkkfsirrrrerreq",
"fhgdir92+=4kgyuuteuyytrut3=X&9iqqwrttr07<-@X&wkjsadfjjjggfdfdfdp",
"uuuyyw5>+=6zstyuttttrrqyr3*X$>wqrr0wtqe3=*@X*wjaterwttteqrwyetq0",
"irrrr94:O&5zfrwrttwqqwqee6=X#-49wtwrrqr1$@+o&wjpeeqqq00eq0weewww",
"iyqt07>&X#5ldwqwtye070ee9<*X@&:8eq07679>$#+O&qjstqq8eq80rqtrq9w0",
"etrw8,*$X+1ddyrrqrq00q0ww<=Xo&=;<&%$$%$$++X+&7khee08q8qqrqw9te97",
"99971=&$X+,pkyyr00q000qr8,,OX#&###@++@++X.o%&,sfq00wwwq99w9we0w7",
"221<=$@O.+:rherq069qeqeqq2-OX#%#++++@#$&%$#&=,au0w9w88732<<<<,<,",
"-=*&#XX..@-0hy00779rw09893;@X#&=;>58wrttw7>$=>t9331<,:;;-**&*&&&",
"XXXXXoooO$-4jsq09qqqqw70e6-+X@=5tihjkhfsq3=O*-51,>-&*%##@@+OOoOO",
"oOOoooOOO$=<pdwe08qe00q092=@XO-tfjgiryet9<#X##$$#$#@#@@OOoX..X.X",
"#@@@@@@@@$=:rdtweq0897qr8:=@.+:ijdyqq00q8;#X@+++++O+O++@@@@@@@@O",
";*%%&%%%$$=;7perwqrweqew0>>%X+>ilyqwrqeqq;@X#*:,>*O%*==-=====-=&",
"wqqqqq003+@=2apw00wq800991:&.o>pleqtrwr07-@.%5ygp;&:5qwqwqwqwqw9",
"fffffsie1+O=>eiwr9809qe846<&.o,ugye0qeqw7-@X=yhde$=7ajjjjjjjjjjd",
"utrytue6,+O=;5eeqrwqq583,1;$.o:ufr04242,:=@X:gfy7+;ejjssassssaai",
"tqeweq93,+O*-,q04442,>1:>-%O..=rq56,&%%#$#@O4hpq6+;tksuryryweweq",
"twweerq1-+O*=-<>:;-*&&$++oX...&61&&$oX.X.X.+5hur6+;rhuqwqwqq8708",
"rwewrq91=+o*-&#+@+ooXXX.......@-;$OOooOOooo%whit6+-qsererer009q0",
"qw88qqq1=+X%;;=$OOooX..o$%&&*&:680q07651*O#2ajuq3+-0sywwqww07798",
"0067qe9>&+X*qdsairw92=@&,5wruuahhhjjjga9:o&8hfue1+=8aywqeqe07799",
"9qee0q6>&@X<gfpuytye8&*;8flljdsggggggfp5=X&qjpr9<O=5ierqqqq0w0e8",
"we0we82-#+X1huwettre8@=:yzfuirytruyyte0<&X*wkiqq:o&>943<<<225607",
"43232>=$@+X2gurrwtqw1O*:yzitt90req0wrqq:$X*elut0-O&+=*=***==;:,>",
";=*&%#oXXoO2fetwtt07;O&>ukrrqwwwq80rw09;%X*rkrt8-O*+XXoOOOooO$%%",
"++OoooOo+$$3gtewtew4;O$>uleweqq7870qqw7;%X&ezyt8-O*@+++++OooooXX",
"%-;,354331&<gt9qeeq4:+O>ult0q97779w80w0:%X&elyyq-O*&&&=*=*&&&++O",
"<8ysffdsaq;>gye98we7>@o;tkpqqe0w78060e9-#X*whwww;o;0iiw5,-==*%&&",
"4phkgdapuw=,htrw7qt9,$o-qhst008067w0eq5-@o*whtw9-o,siupsapiiy5&*",
"8fdputtrr9;<jrtrerew1$X&5gkue09w0q99ww2-#O*wgre8-o<fw0uaiuait6&=",
"9jirweerwq>,jewetee9,&X@1szuurqq8067e01*+O-wftt8-o<fyreeeree9<$&",
"0hyeeerr0q-,gyeteqeq,*.@,yzayew9909wwq<&X+-qfyeq-O<fueerewewq,$%",
"0hirqwyew8*,hiqw0et0,&XO;qjdt00q00wqq9,#X+;wdrw3=o>aytyeeqwrr>$%",
"9jiereere9=:gd0wwee9,*.o=4dgt0qqwqe092;#X+-9u83&$+:uyrtewwqee:$#",
"0hiryerre9*-sg0rw9q0<*.X%,yft095634<>=%@X#=,1;%#%$&6515535223;$#",
"9jieyeeew9**ig0qewq02*.X$;4rq4<;*#++OoooX#&=&%&&=*$%#@#####$#@O@",
"9juqetewq8*%rgrqtw00<*..@*=,:&$+oXXXX.XXo#&-=&====&@@+OOOOOOOOO@",
"0jieewrer9*@9jrrw0e0,*..+&&$++OOO#####$##%*-;<<,,,,,,,>:>>:>:;$%",
"0hieeewtq7*O6jew99w0<*X.O%;,:>>:>,,<>,,,22347werrrerrerrrrrre5&*",
"8hieeree9:@O5kt0q800<*o.o&5wrrererrrrreryyasfjkklkllkjkkhhgfy3#*",
"9fittete9*X@5krwqq09,=O..%8dhllklkjjkkjkllxcccczlkllljlljjhd9:+%",
"8diteerw6=X@4hrt0e00<=+. @8djlzzzllhzkjlzllkhfdpuiipytupupuy5-+$",
"5pteew764*X#4freweq8<-+..@7fhpuuiuytpuupiuuuyrw9qeetq0weeyew2-+@",
"2iwet7<<:#o$2aw0eee91=@. O2flpq00qqwewteqqttrrq9q0wewqeeryr02=++",
"<eww73;;&XO#<trqqe95,=+..X>dlsew0w0w9wew0ertq09qq98wq09w9rqe3-++",
"-,>;*---&X+%:9897651:-@. .=plfrrq0q99qqq9wwee9qqeqqw878000992-X+",
"&$@O+%%&#o#&=>;:;;;-*&+. .*tjdeqewrq9e977qqqwweq0w098w99w0652-o+",
"=-*&#OOoXO#%#@++O++OOOO.  &qptw88q9q09ww8q9q8e99800q0eq79q771-o+",
"*><111>=$@%&#+XXX.XXX.X..X%55,>>>>><99qw987888789w9q99w998892=o+",
":qiaaaue61<>*&@+O+O+OO+OO+%-&##++++@=,1352322332232333233222>%o+",
"<ihhhgkkfaiq642<>>>:;--==*;;**#$#$#@+%*****=******&&&&&&*&*&%XO@",
"1ahiytdggjjfaaaaapppttrq086422<,;*&$@O++++O+OOOOOOXXXXXX.XXXoO$$",
"<ajytyyteyafhhhghgjhghffdadpppiy5**&$$##@@@#@+OOO+OOOOOOOOO+#$&%",
"1phter8qrw00tqrweqytqeqyuidgjhfy2#&==<21;*$$#$$$$##$$#$##$#$****",
"<ifytrweqw0rr0qw87qw80qqrqteuur4;o#=>igfi932,;-;,33333332<<>:--*",
"1uiq90560q9ew976056599q9q9w8ee0,=O@%2gpajjjgt>-<phhhggggdpye9>&*",
"<w5,>>:>>>>>>>>>>>>>>>>>,>>>>,:=*+X@1fppapyir<>0fuutryettrwyd6+&",
":4-@@@@@@@@@@@@@@@@@@@@@@@@@@@@@@OX+:wert9397,,iywrwttrwrwtqe:O*",
"&#oX.X.....XX...X......X.....X....XO&&=&;::>:;>pe00ww00q0wq76-O&",
"=&##@O+OO+O+OOOOOOOOOOOOOOOOOOOOOOO+$==$#OoooO%::-----------=&O&",
"=*=*%%%%%%%$@@@@@@@@@@@@@@@#@@@@@@###*=*&@@@@@#=*oXXXoXoXXoXoXo&"
};
