/* XPM */
static char *bff98e07007a4cbbb3a61a0c7b155848TayXWjEICAjWwEh6[] = {
/* columns rows colors chars-per-pixel */
"64 64 100 2 ",
"   c #005454",
".  c #005C5C",
"X  c #115C5C",
"o  c #006464",
"O  c #006C6C",
"+  c #116C6C",
"@  c #007474",
"#  c #007B7B",
"$  c #117474",
"%  c #117A7A",
"&  c #297474",
"*  c #008484",
"=  c #0A8686",
"-  c #008C8C",
";  c #0C8B8B",
":  c #118181",
">  c #138B8B",
",  c #1A8D8D",
"<  c #009393",
"1  c #0D9595",
"2  c #009A9A",
"3  c #0C9A9A",
"4  c #149393",
"5  c #1A9696",
"6  c #139B9B",
"7  c #1B9D9D",
"8  c #218484",
"9  c #208F8F",
"0  c #298888",
"q  c #378F8F",
"w  c #209595",
"e  c #299797",
"r  c #249C9C",
"t  c #2D9A9A",
"y  c #379090",
"u  c #3C9191",
"i  c #00A4A4",
"p  c #0AA3A3",
"a  c #01A8A8",
"s  c #0DACAC",
"d  c #16A3A3",
"f  c #1AA4A4",
"g  c #12ADAD",
"h  c #1AACAC",
"j  c #17B0B0",
"k  c #1CB2B2",
"l  c #22A3A3",
"z  c #2DA2A2",
"x  c #24ABAB",
"c  c #2CABAB",
"v  c #32A5A5",
"b  c #35AAAA",
"n  c #39ACAC",
"m  c #21B4B4",
"M  c #2BB5B5",
"N  c #2FB8B8",
"B  c #32B3B3",
"V  c #3DB4B4",
"C  c #33B9B9",
"Z  c #3BBBBB",
"A  c #479595",
"S  c #4B9696",
"D  c #679E9E",
"F  c #42ABAB",
"G  c #49AFAF",
"H  c #50AFAF",
"J  c #45B4B4",
"K  c #49B4B4",
"L  c #44BEBE",
"P  c #4ABABA",
"I  c #56B2B2",
"U  c #59B5B5",
"Y  c #53BCBC",
"T  c #5BBBBB",
"R  c #61BCBC",
"E  c #6BBCBC",
"W  c #47C0C0",
"Q  c #48C0C0",
"!  c #51C1C1",
"~  c #5CC3C3",
"^  c #61C5C5",
"/  c #6AC3C3",
"(  c #6BC9C9",
")  c #74C5C5",
"_  c #76CCCC",
"`  c #7CCECE",
"'  c #84CDCD",
"]  c #94C9C9",
"[  c #85D3D3",
"{  c #89D1D1",
"}  c #96D5D5",
"|  c #94D9D9",
" . c #9AD9D9",
".. c #A3D9D9",
"X. c #ABDDDD",
"o. c #B0DEDE",
"O. c #AEE1E1",
"+. c #B3E1E1",
"@. c #B9E4E4",
"#. c #BDE9E9",
/* pixels */
"D 0 0 0 0 0 q q y y u S S S u S S S u A y A u S y y y y y y y y y y y y 0 0 0 0 0 0 0 0 0 0 0 0 0 0 0 0 0 0 0 0 0 0 0 0 0 0 0 & ",
"_ p a h P V g g k m m C W C C C W C Z W Z W C C C M C m C m C m m m m k k j g g g j g g g j j a a a a a a a a a a a x P M i i - ",
") p g ^ X.` 6 < g g k k m k C C C C C W C W W Z L Z W Z C C C C m C m C M N m m m k m m k k k k j j g j j g g j g C ' X.T < 2 - ",
"_ 3 l ' o.T - * i a g g g j m C m N m C C C L Z W W W W Z L Z L Z L Z C C C C M N M M m N N m m k k m k m m k m k P .. .n * < ; ",
") 1 6 K P 1 - < i i a a s a j k h k h k C m C C C L Z L P Q Q Q W W Q Z L Z L Z L Z C C C C M M N N M M M m m m k Z ! B - - 2 ; ",
") 1 < < 2 - - i i i i i < i a s < g s s 6 h k C 7 M C C z C L L v J Q Q c V W W v V Z L z B Z C f x C C l f M M M M h d 6 d g ; ",
") 1 - - < 2 2 i i i i i - i a i - i s s 1 h j k 4 x N m 4 M C L r V Q L t V Q L v V Q Q v n L Z z c Z Z c c C C C C N m M M N 4 ",
") ; - - - < < 2 2 i 2 < - - < < < < < 4 < 1 < 4 6 6 6 6 6 t 7 t 7 r t v z v z v t z v z t v v z z z t v t R ^ Z Z Z Z C C C C 5 ",
") ; - - - - - < 2 2 < @ o o O o o O o o @ O @ @ O @ O @ @ @ O @ @ O @ O @ @ O @ O @ @ O O @ O O @ O @ O 8 ] | Q Q Q Q Z Z Z Z t ",
") ; - - 3 3 < - < < < @ . @ @ @ # @ @ # * * * * * * ; = = * ; ; ; ; ; ; ; ; , > , > , > , 5 w 9 9 9 9 5 U +.| Q Q Q Q ~ P C Z t ",
"E = - r P M 1 * - - - O o < 2 2 i i i i i a a a a a s a s s h k j k h k j k N N N C C C C L Z W L P W W ` #.| W Q Q ' } Y 2 x y ",
"H = - b ( c - # - - - O o - < 2 2 i 2 i 2 i i a a a a a a g a g s j s k j k k k m C M C N N C C W L W Q _ #.| W Q ^ X.O.G * r t ",
"I * * 4 c 1 * @ * - - O o - < < 2 2 2 2 i i i i i a a a a a a a s s j k k k j k k k k m m m C N N C C W _ #.| W Q Y ( P < * l t ",
"I % # * - * @ @ * - * O o - - 2 2 2 2 2 2 i 2 i 2 i a a a a a a a g a g s g s h s k m k k m m m k C N N _ #.| W L Z m f 5 7 C t ",
"I % # # @ @ # # - * * O o * - < < 2 < < 2 2 i 2 i i i i i i a a a a a a g s s s g k k k k k k k m m k k ( #.| C C L W Z W L L y ",
"I # # # # # * * # * # O o - - - - < < < 2 2 2 2 2 i 2 i i i i a a a a a a a a s s g s j j j m m m k m m ( #.[ N N C C C Z L W t ",
"I # @ # # # # * * * * O o * - - - - < - < 2 < 2 2 2 i 2 i i a i i i a a a a a a s s g s j k m k k k k m ( #.[ m m m C C N C C e ",
"K % # # * * # # * * # O o * - - - - - < 2 < < < 2 2 2 2 2 i 2 i 2 i a i a a a a a a a g a j k k g j m m ( #.[ k m k m C m M C 4 ",
"n # # - 2 < - # # * # O o * - * - - - - < - < < < < 2 2 2 2 i 2 i a i i i i a a a a a a a a g s g k k k ( #.[ k k m ~ ' K i d 4 ",
"b @ * 1 h 2 * @ # # # O . # * - * - * - - < < < < < 2 < 2 2 2 2 2 i i i 2 i a i a a a a a a a g s g g j ( #.` j m Q X.@.I - 1 4 ",
"n @ @ - 2 < # o # # # O o * * * - * * - - - - - < 2 < 2 2 < 2 2 2 2 i 2 i i i i i i i a a a a a a a g s ~ #.[ k k L ` R 3 * 3 4 ",
"n # @ @ @ @ o o @ # @ . . # # * * - * - - - - - - < < < < < 2 2 2 2 2 2 2 i i i i i i a a a a a a a a a ( #.` j g h m p - 1 g 4 ",
"b @ @ O . o o O # # @ . . # * * * * - * - - - - - - < 2 < < < < 2 < 2 2 2 2 i 2 i a a i i i a a a a a a ~ #.` g s k k k h k k > ",
"n @ @ @ @ @ @ @ @ # @ . . # # * # * * * * - * - - - - < < < < < < < 2 2 2 2 2 2 2 i 2 i i i i a a a a a ( #.` a i g g s g g j - ",
"n $ @ @ @ @ # # # # @ . . # # # * * * * * * - - - - - - < < < 2 < < < 2 2 2 2 2 2 2 i i 2 a a i i i a a ^ #.` a a a a a s s s 4 ",
"v O @ @ # @ @ @ @ # @ . . # # # # * # * * * * - - - - - - < - < < < < < < 2 < 2 2 2 2 2 2 i 2 i i i i a ~ #.` a a a p g s s s - ",
"n O @ * < - # @ # @ @ . . # # # # # * * * * * * - * - - - - - - < 2 < 2 2 2 2 2 2 2 2 2 2 2 i i 2 a i a P +.` i a a P ( J i p - ",
"v @ @ 1 d < * @ @ @ @ . . # # # # # # * # * * * * * * - < - - - - < < < < < 2 < < 2 2 2 2 2 2 2 2 i 2 i P O.` a a V ..@.T - < - ",
"n @ @ - 2 - @ o @ @ @ . . @ # # # # # # * * * * * * - * - - - - - - < < < < 2 2 < 2 2 2 2 2 2 2 2 i i 2 K  ./ i i J { _ 6 * < - ",
"n @ O @ @ O . . @ @ @ . . @ @ # # # # # # * * * * * * * * - - - - - - < - < < < 2 2 < 2 < 2 2 2 2 2 2 2 K  ./ i i f M f - - i - ",
"v $ O O o . . O @ @ @ . o @ # # # # # # # * # # * * * * - * - - - - - - - < < - < - < < 2 2 < 2 2 2 2 i K  .( i 2 a i i 2 i i - ",
"n # @ O o O O O @ @ O . . @ # # # # # * # # # * * * * * * * * - * - - - - - - < < < 2 2 2 < 2 2 < 2 2 2 K  ./ 2 2 i i i i 2 i - ",
"l # @ O O O @ @ @ @ O . . @ # # # # # # * # # # * # * * - * * * - - - - - - - - < < < < < 2 2 < 2 < 2 2 K  ./ 2 2 2 i 2 i i i * ",
"d # @ @ O O O O @ @ O . . @ @ @ @ # # # # # # # # * # * * * * * * - * - - - - - - < - < < 2 2 < 2 2 2 < K  .E 2 2 2 p 2 2 i i * ",
"f # # # * @ @ O @ @ O . . @ # # # # # @ # # # # # # * # * * * * * * - * * - - - - < - - < < < 2 2 2 2 2 K | / 2 2 2 B T n i i * ",
"d # # - < - @ O O @ @ . . @ @ @ # @ # # # # # # # # # * # * # * * * * - * - - - - - - - - < < < < < 2 < n [ T < 2 b } +.T - < * ",
"f # # - 2 - @ o O @ O . . @ @ @ @ @ # # # # # # # * # # * # * * * * * * - * - - - - - - - < < - < < < 2 c _ T 2 2 F } ' z * - * ",
"d # # # # @ . . O O O . . @ @ @ @ # # @ @ # # # # # # # # * # * * * * * * - * - - - - - - - - < < < < < M ` T < 2 f n c - - 2 # ",
"f # @ O o . . o O O O . . @ @ @ @ @ @ # # # # # # # # # # # # # * * * * * - * - * - - - - - - < - < < < c _ T 2 < 2 2 2 < < 2 * ",
"d # # @ O o O O O O O   . @ @ @ @ # @ @ @ # @ # # # # * * # # * # * # * * * * * * - - - - - - - - - - < c _ T 2 2 2 < 2 < 2 2 # ",
"6 * # @ # @ @ @ O O o . . O @ @ @ @ @ @ # @ # # # @ # # # # # # # # * * * * * * * * - - - - - - - - < - c ( K 2 < 2 2 2 2 2 2 # ",
"f # # # # @ @ @ @ O O . . O @ @ @ @ @ # @ # # @ # @ # # # # # # # * # * # * * * * * * - - - - - - - - - c ^ F < < 2 < < < 2 < * ",
"7 # # # * * @ O @ O O   . O @ @ @ @ @ @ # @ # @ # # @ # # # # * # # # # # * * * * * * * - * - - - - - - c ^ F - < 2 d c h < < * ",
"d * * < 3 < # @ O O O . . O O @ @ # @ @ @ # @ # @ # # # # # # # # # # * * * # * * * * * * * * - - - - - z ^ F < < d ! ( n < - # ",
"f * * < p - # O @ O O .   O @ @ @ @ @ @ @ @ # @ # @ # # # # # # # # # * # # # * * * * * * * * - - - - - f ~ F - - f ^ ` G * - # ",
"d * * # = # o . @ O O . . O O O @ @ @ @ @ @ @ # @ # # @ @ @ # # * # # # # * # * * # * * * * - * - - - - d Y F - - 1 c K t * - # ",
"f * * O o o . o @ @ O . . O O O @ @ @ @ @ @ @ @ @ # # # # # # # # # # # # * # * # * # # * * * * * - - - d P F - - - < < - * - # ",
"d * # @ O o o @ @ @ O   . O O O O @ # @ @ @ @ @ @ # @ @ # @ @ # # # # # # # # # * # * * * * * * * * * - d L n - - - - - - < < @ ",
"f * * # # # # # @ @ @ . . O O O O @ @ @ @ @ @ @ @ # @ # # @ # # # # # # # # # # # # # * # * * * * - * * d C z - - - - - - - < # ",
"d * * * # # # @ # @ O . . O O O O O @ @ @ @ @ @ @ @ @ # # @ @ # # @ # # # * # # # # * # * * * * * * * * 6 C z - - < - - - - - @ ",
"f * * * * * # # # # @ . . O O O O O O @ @ @ @ @ @ # @ @ # # @ # @ # # # # # # # # * # * # * # * * * * * 6 C z - - - < 3 1 < - # ",
"d * * < 3 - - # @ @ O . . O O O O O O @ @ @ @ @ @ @ @ @ @ @ # @ # @ # # # # # # # # # # * # # * * * * * 3 C l - * < b L h < * # ",
"f * * 2 d < # O # @ @ . . O O O O O O O @ @ @ @ @ @ @ @ @ @ # # # @ # # # # # # # * # # # * # * * * * * < m l * - 3 ! ^ f * * @ ",
"d * * - - # O . @ @ @ . . O O @ O O O O O @ @ @ @ @ @ @ @ @ @ # @ # # @ # # # # # # # # # # * # # * * * < g 6 * * 1 M x - # # # ",
"f - * O O O . o @ # @ . o @ # @ @ @ @ @ @ @ # @ # # # # # # # # * # # # # # # # # * * * * * * * * * - - 2 s 6 * * - < < # # # # ",
"d - * O o o o O # # @ . @ - - - * * * * * * * * - - - - - < < - - - - < < < < < < < - < < < < 2 2 2 p p p h 6 * * * * * # # - # ",
"f - * * * * # # # @ @ o # < - * * * * * * * * * * - * * - - - < < - - < 2 2 2 2 2 2 2 2 2 2 2 2 2 3 f f f h 1 * * * * - - - - @ ",
"d - * * * * # # # # # @ O @ @ @ O @ O O O O @ O O @ @ @ O @ # # @ # # # @ @ # # # @ # # @ # * # # # * * # * * * * * * * * * - # ",
"d - * * * * # # # # # @ . O @ @   O O O   o O O   O @ @ . O @ @ . O @ # . O # @ . O # # o O # # o O # * o O # * * * - - - * * @ ",
"f - - - 3 1 # # # # # @ @ @ @ @ O O @ O o O O O O @ @ @ @ @ @ @ @ @ # @ @ # @ # @ # @ # @ # # # @ # # * # # # * * * 1 d 2 * * @ ",
"d - - 6 C 6 # O # # # @ # # @ @ @ O O O O O o O O O @ @ @ @ @ @ @ @ @ # # @ # @ @ # @ @ # # # # # # # * # * # * # < b L 3 * # @ ",
"d < - 2 7 * O . # # # # @ @ @ @ @ @ @ @ O O O O O O @ @ @ @ @ @ @ @ @ @ @ # # # # # # # @ # # # # # # # # # * # * - g d < # @ @ ",
"f - - # O o . o # # # # @ # # @ @ @ O @ @ O O O O O O @ @ @ @ @ @ @ @ @ @ @ @ # # @ @ # # # # # # # # # # * # * # * * = # @ # @ ",
"r > : + X X X + % % % % $ $ $ $ + $ $ + + + + + + + + + $ $ $ $ $ $ $ $ $ $ $ $ % $ $ $ $ $ $ % % % % % % % % % % % $ $ $ $ % $ "
};
