/* XPM */
static char *f81bd4473f4642d7d974da20c5048a85iCJzs9t8kNTDGFRa[] = {
/* columns rows colors chars-per-pixel */
"64 64 129 2 ",
"   c #353535",
".  c gray21",
"X  c #373737",
"o  c #3A3A3A",
"O  c #3C3C3C",
"+  c gray24",
"@  c #3F3F3F",
"#  c #413737",
"$  c #473A3A",
"%  c #414141",
"&  c gray26",
"*  c gray27",
"=  c #464545",
"-  c #444446",
";  c #464646",
":  c #4B4242",
">  c #4C4242",
",  c #484646",
"<  c #4D4444",
"1  c #494949",
"2  c gray29",
"3  c gray30",
"4  c #4D4D4F",
"5  c #4E4E4E",
"6  c gray31",
"7  c #524242",
"8  c #514747",
"9  c #4F4F51",
"0  c #515151",
"q  c #505052",
"w  c gray32",
"e  c #535353",
"r  c #555555",
"t  c gray35",
"y  c gray36",
"u  c #5D5D5D",
"i  c #615959",
"p  c #606060",
"a  c #626262",
"s  c gray39",
"d  c #656565",
"f  c #686868",
"g  c gray42",
"h  c #6D6D6D",
"j  c #6F6F6F",
"k  c #717171",
"l  c #747474",
"z  c gray46",
"x  c #767676",
"c  c #777777",
"v  c gray47",
"b  c #797979",
"n  c #7B7B7B",
"m  c #7C7C7C",
"M  c gray49",
"N  c #7E7E7E",
"B  c gray50",
"V  c #818181",
"C  c gray51",
"Z  c gray52",
"A  c #868686",
"S  c #868688",
"D  c #868689",
"F  c #888888",
"G  c #898989",
"H  c #89898B",
"J  c gray54",
"K  c #8D8D8D",
"L  c gray56",
"P  c #958E8E",
"I  c #909090",
"U  c gray57",
"Y  c #939393",
"T  c #979191",
"R  c gray58",
"E  c #959595",
"W  c #979797",
"Q  c #989898",
"!  c gray60",
"~  c #9A9A9A",
"^  c gray61",
"/  c #9D9D9D",
"(  c #9F9F9F",
")  c #A0A0A0",
"_  c gray63",
"`  c #A2A2A2",
"'  c #A6A4A3",
"]  c #A4A4A4",
"[  c #A5A5A5",
"{  c #A4A4A6",
"}  c #A7A7A7",
"|  c #A9A1A1",
" . c #ABA1A1",
".. c #ADA5A5",
"X. c gray66",
"o. c #A9A9A9",
"O. c #AAAAAA",
"+. c gray67",
"@. c #ACACAC",
"#. c gray68",
"$. c #AEAEAE",
"%. c #B0A6A6",
"&. c #B2A9A9",
"*. c #B5AFAF",
"=. c #AFAFB1",
"-. c gray69",
";. c #B1B1B1",
":. c gray70",
">. c #B4B4B4",
",. c gray71",
"<. c #B6B6B6",
"1. c #B7B7B7",
"2. c #B7B7B9",
"3. c #B9B9B9",
"4. c gray73",
"5. c #BCBCBC",
"6. c gray74",
"7. c gray75",
"8. c #BFBFC1",
"9. c #C1C1C1",
"0. c gray76",
"q. c #C1C1C4",
"w. c #C2C2C4",
"e. c #C3C3C6",
"r. c #C2C2C7",
"t. c #C3C3C7",
"y. c #C5C5C5",
"u. c #C6C6C6",
"i. c gray78",
/* pixels */
"- 5 w S ] $.4.0.t.t.e.e.e.e.e.e.0.0.e.0.e.q.q.q.e.q.q.8.3.-.` H q q 0 A ] -.3.q.e.e.e.e.e.e.e.e.8.8.e.e.8.e.e.q.q.q.q.8.3.@.] D ",
"- w 9 B 3.7.5.7.0.0.4.7.0.7.7.5.<.3.;.4.6.3.6.3.6.3.6.3.6.>.>.H q q w N 4.8.6.8.8.7.7.7.8.7.7.7.3.;.>.<.6.4.6.3.6.3.6.3.3.3.>.G ",
"- w w B >.5.3.5.4.7.<.<.4.<.;.<.>.;.;.<.3.3.3.3.3.3.>.>.3.3.-.G q 0 0 N >.3.3.6.7.7.4.<.4.3.;.>.>.>.>.>.<.4.3.4.3.3.>.>.>.3.-.Z ",
"- w 5 B #.3.4.>.<.4.7.<.<.;.+.=.<.>.<.<.3.>.3.3.3.3.>.>.-.@.@.G w q 0 m $.3.3.:.;.5.7.>.;.;.@.-.>.<.;.3.7.;.3.<.3.3.>.>.-.@.@.Z ",
"- w 0 m $.5.<.>.;.<.7.<.$.+.$.$.4.3.;.4.<.>.<.4.>.6.>.6.@.-.] G 6 w w m $.6.>.>.>.>.7.<.-.+.-.+.7.;.<.7.;.<.4.6.3.3.>.3.@.-.] Z ",
"- w 0 m $.5.<.>.<.<.4.<.;.$.$.$.4.<.3.<.<.;.3.4.>.6.3.3.@.@.] G w q 6 m $.6.>.>.>.>.5.;.-.+.-.-.7.>.>.4.>.>.>.4.-.6.3.3.=.-.] Z ",
"- 0 0 m #.>.4.<.;.<.<.$.+.$.$.4.<.<.;.+.;.;.;.>.X.>.3.@.-.@.] G e w q B @.>.6.>.>.>.;.-.+.;.+.4.<.4.;.@.;.;.;.>.@.-.3.@.-.X.] Z ",
", w 0 m #.>.>.3.<.$.$.+.$.$.$.$.<.-.3.+.+.-.+.;.@.X.X.X.X.X.@.G w 6 q B @.>.>.3.<.;.;.+.-.+.;.+.>.@.4.X.+.-.@.-.@.X.X.@.X.X.@.Z ",
"= 0 0 m #.$.+.$.+.+.$.] +.$.$.$.+.[ [ +.[ +.#.+.;.#.o.#.#.o.o.A e w w n +.;.+.#.[ o.+.[ [ -.+.;.X.X.X.X.X.X.@.@.3.X.X.-.-.X.] Z ",
"= 0 0 m ) ^ o.( ` ` ] ] / ] ;.] ] ( o.+.+.+.) [ o.` ( ] ] ^ ` A w 6 6 B ` ~ o.( [ [ +.[ ( o.-.[ ] ) ] @.X.@.) X.X.] ^ ] ] ^ ) Z ",
"; 0 6 n ^ I Q ) Q I ` / ` / ] Q ~ ] ~ ~ ) ~ ] ` ] ~ ( Y Q ] ~ A w 6 6 n ~ L Q ) Q E ( ~ ( ^ ] Q ^ ) Q ^ ) ^ ) ] ] ^ ) I Q ) Q Z ",
"; 0 0 v K K I E I R R / R / Q I ( ~ I Y I Y Y E Y ) Y Y L ( Q C w w e x K L L Y L Y Y ( E ^ Q Y ) Q I R R R I R R ^ R R I ) Q N ",
"7 0 6 x J F K F L I I G L G G Q Y L L A L A L Z K F J J F J A B 6 w w l L Z K F L L L A L J F Q R I K G K G K G K G K G K G G c ",
"7 6 2 u s s s s s s s s s s s d s s s s s s s s s s s s s s s p ; w 1 y s s s s s d s s s s s s d d a d a d a a a a d d d a d y ",
"> ; O X X . X X . . X X X X . . X . . X X . X . . X X X X . . X + ; O . . . . X X   X   X .   X           o             o     o ",
"> , ; = ; , - - - * ; , - - - - ; ; = ; ; = ; ; ; ; ; = ; ; ; ; 1 ; 1 ; - ; = ; ; ; ; ; ; ; ; ; ; ; ; ; ; ; ; ; ; ; ; ; ; ; - & ",
"i s s s s s s s s s s p p u u e e 0 t u p p a a s s s s s s s s s s s s s s s s s s s p r e e 0 q w t y s p s s s s s s s s s p ",
"&.7.5.7.5.7.5.7.5.7.4.>.} ( A e 6 e A ( } :.4.5.7.7.5.7.7.7.7.5.7.7.4.7.4.7.7.7.4.7.4.+.n p e 2 w e Z ) [ ;.4.7.7.7.7.7.7.4.7.<.",
"..3.3.7.3.7.4.7.4.7.3.3.1.:.F e e 0 C >.7.7.0.0.7.7.0.0.7.7.7.4.<.<.4.7.4.7.4.7.4.7.>.~ N m g ; 5 q B 3.7.7.8.0.8.7.0.0.7.4.<.>.",
"] >.>.<.4.3.3.3.4.1.>.1.3.;.J e 6 6 B 1.7.3.7.7.7.<.3.5.3.;.<.>.;.<.;.3.4.<.4.<.4.<.-.L C ~ C 6 q q m 3.7.<.7.8.7.<.<.;.<.<.;.-.",
"o.>.>.4.3.4.3.3.1.:.:.:.#.#.A 0 e 6 B #.>.5.3.1.7.4.>.>.;.+.>.;.3.>.<.4.<.4.<.4.<.<.+.L -.+.F e w 6 N -.<.4.;.4.7.4.;.+.;.;.3.-.",
"O.>.#.;.;.>.>.#.:.3.+.;.o.o.F e 6 6 B #.>.4.1.:.;.3.>.O.$.#.<.3.4.;.#.;.<.;.>.-.>.;.~ ` <.+.A e 0 q N #.;.7.4.>.<.<.;.-.<.3.4.<.",
"] <.#.O.;.#.;.#.+.+.+.o.+.+.J e e 6 n $.>.1.3.:.;.>.#.$.#.;.$.3.-.<.-.+.-.-.;.+.[ Q [ <.-.+.A e 0 0 m +.<.4.4.>.;.;.+.-.-.4.-.[ ",
"] >.<.>.>.;.3.;.1.:.1.+.#.} A 0 e 6 B $.4.>.1.:.3.4.;.;.O.;.$.4.<.<.<.;.;.>.<.-.~ Y ;.-.-.[ F e 0 6 N +.4.;.>.>.4.4.;.;.#.4.;.-.",
"+.>.$.:.:.:.:.#.>.3.$.$.+.] A e 6 6 B +.1.4.:.>.>.1.:.+.$.$.3.<.4.;.-.;.;.-.( Q L L [ -.+.` A e e 6 m #.<.4.<.>.;.<.;.+.<.<.4.4.",
"( 1.+.+.:.+.$.+.+.+.o.+.+.+.J e e 6 m $.:.1.4.:.:.:.+.$.#.#.#.3.-.<.+.[ ( E Q ( Q L Y [ [ #.J e 0 6 N -.;.3.4.;.<.;.+.-.-.<.-.[ ",
"Q +.o.} +.$.+.>.+.} #.$.} } A 0 e 0 m #.:.+.:.+.o.+.} +.#.#.#.#.[ ~ Y Y L Q ` ;.` I Y $.o.o.A e 0 6 N +.-.-.;.#.+.+.[ +.-.+.[ [ ",
"I } #.+.+.] } +.} ( } o.( ] A e 6 6 n ] ( +.( } } } } ( o.$.O.` E L ( [ ` ~ [ +.Y Y [ [ ( ` A e e 6 n ` ( +.` [ [ o.o.-.+.[ ( Q ",
"W ~ ( ] ( ) } ] ( ( Y Q ] Q A e e 6 n ( Y ~ ] Q E ' ( ( ( } Q E Y Q ~ [ ~ ] ] Y L [ [ ( ] ~ A e 0 6 n ( Y ~ ` ~ Y ] ( [ ~ ~ ] ( ",
"J Y W Y W Y W W ( Y Y Y ] Q Z e e 6 x I K Y W I E U ( W ( Q E E Q L Q Y Q Y Q J A +.( Y ( ~ C e 0 6 n L L L Q L Y Y ( ~ Y ( ~ Q ",
"J Y L L L L L I L Y L L L L C e 6 e x I J L L Y Y U I I L I Q Q Y Y L L L Y L A B Q L Y L L C e e 0 x L J L L Y Q Y L L ~ ~ Q L ",
"f j g j g j g j g j g j g g f 2 6 2 s j h j g j j j h j a s j j j j g j g j g s d j g j g g d 2 6 2 s j g j g j j j g h l j j g ",
"# + O O O O O + + + O O O O O X X X O O O O O + O O O O X X O O O O + + + O O X O O O + O O O   X X O O O O O O O O O O O O O O ",
"$ & + & & & & & & + & & & & + & & & + & & & & & + & & & & & + & + O + + & & & & & & + & & & & & + & & + & & & & & + & & + & + O ",
"8 6 6 e e e e r r r r r e r r r e r r r e r e e r r e e e r e 6 = 2 2 e e r e e e r r r e e e r r r r r e e r r r e r e e e r 6 ",
"> e e N Y ~ ` -.-.-.;.+.-.-.;.-.-.-.;.+.-.-.-.-.-.-.-.-.[ ~ Y N 6 6 e N Y ~ ` -.-.-.-.;.-.-.-.-.;.+.-.-.-.-.-.-.-.-.-.-.` ~ Y n ",
"< e 6 C ;.4.7.0.0.0.0.y.0.0.0.0.7.7.4.7.0.0.0.7.0.7.0.7.7.<.;.J e 6 r C ;.4.7.0.y.0.y.0.0.y.0.0.7.4.4.7.0.7.0.7.0.0.0.7.0.<.;.A ",
"< 6 e N 4.7.4.7.7.7.4.4.7.4.4.<.;.;.<.;.<.4.<.4.<.4.<.;.<.4.<.J e e 6 N 4.7.4.7.7.7.<.4.7.<.4.<.<.;.<.;.<.4.<.4.<.4.<.;.<.4.;.A ",
"< 0 6 N -.<.4.<.<.0.4.<.<.;.-.;.<.;.;.<.4.<.4.4.4.<.<.<.;.-.-.J e 6 6 N ;.<.4.<.4.7.4.<.<.;.-.;.;.<.;.<.4.<.4.4.4.<.;.<.;.-.-.A ",
"; e 6 N -.4.4.<.;.<.4.<.;.+.-.-.4.<.<.4.<.<.<.4.<.4.<.<.+.-.+.A e e 6 N -.4.<.<.;.<.7.<.;.-.+.-.4.<.<.4.<.<.<.4.<.4.<.4.-.-.[ A ",
"= 6 6 n -.4.4.;.;.<.<.;.-.-.+.;.<.4.;.-.;.;.<.<.-.<.<.-.+.+.[ A e 6 6 N +.<.4.<.;.;.<.<.-.+.+.<.<.4.;.-.;.;.<.;.-.<.4.;.-.+.[ C ",
"; 6 e N +.;.4.4.<.;.;.-.-.+.-.;.<.;.<.+.-.;.-.-.+.+.-.+.+.+.$.J e 6 6 n -.<.<.4.<.<.;.-.-.+.-.-.4.;.<.+.$.-.-.-.+.+.-.[ +.[ +.A ",
"; 6 e n $.>.-.;.-.+.+.+.+.+.+.-.-.+.-.+.+.+.+.-.;.+.[ -.-.[ [ A e 6 e N -.;.-.<.-.$.+.[ +.-.+.-.-.+.-.+.+.+.-.-.;.-.[ -.-.+.[ A ",
"; e 6 n ` ` #.] [ +.[ [ ( +.-.+.+.( [ +.+.+.` [ -.[ ( +.+.( [ A e e 6 n ` ` +.` [ [ [ +.( +.+.+.[ ( [ +.+.+.[ [ -.[ ( +.+.( [ C ",
"; 0 0 n ) Q ( ( ~ ~ ` ( ` ( [ ( ( ( ( ` [ ` ` [ [ ( ( Q ( ( ( A e 6 6 N ( Q ( ( ( Q ` ( ( ( +.( ( ( ( ` [ ` ` [ [ ( ( ~ ~ ( ( C ",
"; e 6 b Y J U ~ L Y Q ( ~ ` ~ Y ( ~ Y Q Q Q Q ~ Q ( Q Y Y ` Q A e e 6 n Y J Y ~ Y Y Q ( Q ( ~ Y ( ~ Y Q Q Q Q ~ Q ( Q Y Y ` ~ C ",
"; 0 6 v L L U L Y Q Y Q Y Q Y ~ ~ Q Y L Y L Y L Y Y Y L Y Y L C e 6 6 x L L L L Y Q Y Q Y Q Y ~ ( Q Y L Y L Y L Y Y Y L Y Y L C ",
"; 0 6 g x x x x n n l x x l x N n n n x x x x x n x x x x x l j 6 6 6 g x x x x x n x x x x l N n n x x n x x x x x x x x x l g ",
"; 0 1 2 = = = = = = % = = & ; ; & ; ; ; & ; & ; ; & ; ; ; ; ; 2 & 2 & ; ; ; ; & & ; ; & & ; ; & & ; ; & & ; ; ; ; & & ; ; ; ; & ",
"= 2 ; % O O O O O O O O O O O O O O O O O O O O O O O O O O O + & ; & + + O O O + O O O + O O O + O O + O O O O O + O O O O O + ",
"1 6 6 6 5 3 3 0 0 5 0 5 6 6 0 6 6 6 6 6 6 6 6 6 6 6 6 6 6 6 6 6 6 6 6 6 6 6 6 6 6 6 6 6 6 6 6 6 6 6 6 6 6 6 6 6 6 6 6 6 6 6 6 2 ",
"L ( ( ~ ( ^ ^ ^ Q ) Q E J C z e e e x C J Y ~ ( ( ~ ( ~ ~ ( ~ ( ( ~ ( ~ ( ~ ~ ( ( ~ ( Y J C x e e e x C J Y ~ ` ~ ( ~ ( ~ ~ ( Q ",
"*.0.7.y.0.u.0.u.0.u.0.7.<.-.L e 6 e A ;.4.0.y.y.y.y.y.y.y.i.y.0.7.0.0.y.0.0.0.y.0.y.0.0.<.-.L e 6 e A -.4.0.y.y.i.y.y.y.y.0.0.4.",
"..;.>.3.3.3.3.3.4.3.;.3.3.;.J e e e N <.7.4.0.7.7.4.4.7.4.4.4.;.;.<.;.<.4.4.4.4.<.<.<.<.4.<.A e e 6 N <.7.4.7.0.0.4.4.4.<.<.<.-.",
"] >.>.3.3.3.3.3.<.;.3.;.;.-.J e 6 6 N ;.4.<.4.4.7.4.;.4.<.-.;.;.<.<.<.4.<.4.<.4.4.;.;.<.;.-.A e 6 6 N ;.4.4.4.4.7.4.;.-.;.;.;.-.",
"| >.3.3.>.3.3.3.4.3.<.$.-.[ Z e e 6 n -.4.4.<.;.4.7.<.;.-.-.-.<.;.;.4.4.<.4.4.4.4.<.<.-.+.+.J e e 6 N -.<.4.;.;.4.7.<.-.-.<.<.-.",
"%.>.>.;.;.<.<.$.<.3.;.-.$.[ A e 6 6 N -.<.4.;.<.;.<.;.-.-.+.[ <.4.;.;.;.<.<.<.-.<.<.<.-.-.[ A e e 6 n -.4.4.;.;.;.<.;.-.;.4.4.<.",
"..<.+.-.>.$.-.#.-.;.+.+.[ o.A e e 6 n -.;.4.<.<.<.;.-.-.+.+.` [ ;.4.+.-.;.-.;.+.-.;.+.+.+.[ A e e 6 n -.;.4.4.<.<.;.-.+.<.<.<.-.",
"! *.+.[ -.+.$.;.+.o.+.$.+.o.J e e 6 n -.;.-.<.-.-.-.+.+.-.+.+.` ( -.+.[ +.-.-.-.-.[ +.+.[ +.A e 6 6 N $.;.-.4.-.-.-.[ -.-.;.[ ` ",
"T O.+.+.#.[ +.-.[ ] +.+.` ] A e e 6 n [ +.+.[ +.[ [ [ ` +.-.+.( Q ` +.+.+.[ +.;.[ ` +.+.[ ` A e e 6 N [ [ -.[ [ [ +.+.+.+.[ [ ~ ",
"P ) | o.[ ) [ [ ] ) ! ( ) ! Z e 6 6 n ( Q ` ( ( ( ` ` ( ` [ ( ~ ` ` +.[ [ ( [ +.( ( ~ ( ( ( A e e 6 N ( Q ` ( ( ( ` ` +.[ ( ( ~ ",
"I E Q ! Q ! ) ) ! ! Y Y ] Q A e e 6 n Q L Y ( Y Y ~ ( ~ ( ( Y ~ ` Y Q ~ Q ~ ( ~ ( ~ Y Q ` Q C e 6 6 n Q L Y ( Y Y ~ ( ( Y ( ` ~ ",
"J I E I E L Y E ~ E E Y Q E C e e 6 x L J L Y Y Q Y ~ Y ~ Y Q Q Q L Y L Y Y Y Y Q Y Y R Q Y A e e 6 x L J Y Y Y Q Y ~ Y Q ( ~ Y ",
"m Z B B B N N B N N N N N N z 0 e 6 j N N C N C C C N C N N C N C C N N N C V N N V N N N n x 6 6 6 j N N N N C C C N N J A C N "
};
